<?xml version="1.0" encoding="utf-8"?>
<!-- Generator: Adobe Illustrator 23.1.0, SVG Export Plug-In . SVG Version: 6.00 Build 0)  -->
<svg version="1.1" id="Layer_1" xmlns="http://www.w3.org/2000/svg" xmlns:xlink="http://www.w3.org/1999/xlink" x="0px" y="0px"
	 viewBox="0 0 16 16" style="enable-background:new 0 0 16 16;" xml:space="preserve">
<style type="text/css">
	.st0{fill-rule:evenodd;clip-rule:evenodd;}
</style>
<g>
	<g>
		<path class="st0" d="M8,1.41C4.27,1.41,1.25,4.36,1.25,8S4.27,14.59,8,14.59s6.75-2.95,6.75-6.59S11.73,1.41,8,1.41z M10.04,13.72
			L9.69,7.28H8l0,6.77h0h0V7.28l0,6.77c-0.71,0-1.4-0.12-2.04-0.34l0.35-6.44H8V6.74H6.33L1.81,7.53c0.06-0.71,0.24-1.39,0.53-2.01
			l3.98,0.77v0H8v-0.5H6.31V5.25H8V4.67H6.31L8,2.91V1.95h0c2.52,0,4.69,1.47,5.66,3.57L9.69,6.29v0H8v0.46h1.67l4.52,0.78
			C14.2,7.68,14.21,7.84,14.21,8C14.21,10.64,12.46,12.9,10.04,13.72z"/>
		<rect x="8" y="5.25" class="st0" width="1.69" height="0.54"/>
		<polygon class="st0" points="8,2.91 8,4.67 9.69,4.67 		"/>
	</g>
</g>
</svg>
