<?xml version="1.0" encoding="UTF-8"?>
<svg width="138px" height="51px" viewBox="0 0 138 51" version="1.1" xmlns="http://www.w3.org/2000/svg" xmlns:xlink="http://www.w3.org/1999/xlink">
    <!-- Generator: sketchtool 52.5 (67469) - http://www.bohemiancoding.com/sketch -->
    <title>5CB3AE4F-2E44-4A75-BA52-4566B7F9C21E</title>
    <desc>Created with sketchtool.</desc>
    <g id="COMP---Homepage" stroke="none" stroke-width="1" fill="none" fill-rule="evenodd">
        <g id="Homepage-DESKTOP" transform="translate(-100.000000, -47.000000)">
            <g id="Header-DESKTOP" transform="translate(-5.309082, -1.429688)">
                <g id="BeaconVector" transform="translate(105.142578, 47.945312)">
                    <path d="M26.436,1.118 C26.448,1.118 26.461,1.116 26.472,1.116 C40.62,1.116 52.089,12.126 52.089,25.708 C52.089,39.289 40.62,50.296 26.472,50.296 C26.461,50.296 26.448,50.296 26.436,50.296 L26.436,1.118" id="Fill-1" fill="#FFFFFE"></path>
                    <path d="M27.152,1.118 C27.14,1.118 27.128,1.116 27.117,1.116 C12.969,1.116 1.5,12.126 1.5,25.708 C1.5,39.289 12.969,50.296 27.117,50.296 C27.128,50.296 27.14,50.296 27.152,50.296 L27.152,1.118" id="Fill-2" fill="#005C9A"></path>
                    <polygon id="Fill-3" fill="#005C9A" points="20.605 18.007 33.845 18.007 33.845 15.945 20.605 15.945"></polygon>
                    <polyline id="Fill-4" fill="#005C9A" points="50.878 16.582 33.683 19.912 20.605 19.912 20.605 21.657 33.568 21.657 52.554 25.012 50.878 16.582"></polyline>
                    <polyline id="Fill-5" fill="#005C9A" points="27.148 6.896 20.605 13.722 33.845 13.722 27.148 6.896"></polyline>
                    <polyline id="Fill-6" fill="#005C9A" points="20.605 23.721 33.845 23.721 35.088 49.409 27.039 50.391 19.209 49.482 20.605 23.721"></polyline>
                    <path d="M27.06,50.296 L27.06,23.721 L20.605,23.721 L19.209,49.482 L27.039,50.391 L28.286,50.24 C27.889,50.257 27.498,50.296 27.095,50.296 C27.084,50.296 27.071,50.296 27.06,50.296" id="Fill-7" fill="#FFFFFE"></path>
                    <polyline id="Fill-8" fill="#FFFFFE" points="20.605 19.912 20.605 19.925 3.069 16.519 1.29 25.067 20.65 21.657 27.06 21.657 27.06 19.912 20.605 19.912"></polyline>
                    <polygon id="Fill-9" fill="#FFFFFE" points="20.605 18.007 27.06 18.007 27.06 15.945 20.605 15.945"></polygon>
                    <polyline id="Fill-10" fill="#FFFFFE" points="27.06 6.989 20.605 13.722 27.06 13.722 27.06 6.989"></polyline>
                    <path d="M52.666,25.772 C52.666,11.817 41.068,0.498 26.771,0.498 C12.473,0.497 0.876,11.817 0.876,25.774 C0.876,39.728 12.473,51.048 26.771,51.048 C41.068,51.048 52.666,39.729 52.666,25.772 Z M51.284,25.772 C51.284,38.983 40.306,49.699 26.771,49.699 C13.236,49.699 2.259,38.983 2.259,25.774 C2.259,12.562 13.236,1.847 26.771,1.847 C40.306,1.847 51.284,12.562 51.284,25.772 Z" id="Fill-11" fill="#FFFFFF"></path>
                    <path d="M71.5884768,28.9475425 C71.5884768,28.3390013 71.5101359,27.8157957 71.354853,27.3905163 C71.19957,26.9596412 70.9883293,26.5987133 70.7309233,26.3091316 C70.4707195,26.016752 70.1783399,25.787325 69.8509867,25.6194516 C69.5264314,25.4473813 69.1878867,25.3200773 68.8395493,25.2333427 C68.4926108,25.1494059 68.1484703,25.096246 67.8183192,25.0724639 C67.489567,25.0500808 67.1859959,25.0416871 66.9201963,25.0416871 L65.2176798,25.0416871 L65.2176798,32.7037107 L66.9201963,32.7037107 C67.1859959,32.7037107 67.489567,32.6939181 67.8183192,32.6743328 C68.1484703,32.6575455 68.4926108,32.6113803 68.8395493,32.5330394 C69.1878867,32.4602942 69.5264314,32.3413838 69.8509867,32.1861009 C70.1783399,32.030818 70.4707195,31.8097846 70.7309233,31.5299956 C70.9883293,31.2460097 71.19957,30.8990712 71.354853,30.4821855 C71.5101359,30.0639009 71.5884768,29.5518869 71.5884768,28.9475425 Z M70.8778126,19.9579198 C70.8778126,19.2290693 70.7491096,18.6569007 70.4972995,18.2316213 C70.2412925,17.803544 69.9195351,17.4845845 69.5320272,17.2691469 C69.1417215,17.0579062 68.7122452,16.9222085 68.2491943,16.8606549 C67.7819466,16.8018992 67.3426778,16.7739203 66.9201963,16.7739203 L65.2176798,16.7739203 L65.2176798,23.5252304 L66.9201963,23.5252304 C67.3230925,23.5252304 67.7553666,23.4790652 68.2156197,23.3923306 C68.6758727,23.3013992 69.0997531,23.126531 69.4942557,22.8649282 C69.8887583,22.6089212 70.2175104,22.2465944 70.48331,21.7807456 C70.7463117,21.3120989 70.8778126,20.7091535 70.8778126,19.9579198 Z M74.0296364,29.0258834 C74.0296364,29.8946285 73.9065292,30.623479 73.657517,31.2152329 C73.4154994,31.8055878 73.0909441,32.2896229 72.6866489,32.6743328 C72.2837527,33.0604417 71.8304944,33.3584171 71.326874,33.5696578 C70.8232537,33.7794996 70.3098408,33.9305857 69.792231,34.025714 C69.2704244,34.1180444 68.7710009,34.1726033 68.2939606,34.1921885 C67.8183192,34.2103748 67.4014335,34.2187685 67.0530961,34.2187685 L62.936,34.2187685 L62.936,15.2574636 L66.7607165,15.2574636 C67.1174476,15.2574636 67.5245407,15.2672562 67.9875916,15.2854425 C68.4450467,15.3050277 68.9136934,15.3595866 69.3893348,15.450518 C69.8607794,15.5470452 70.3238303,15.6883387 70.7770885,15.8757974 C71.2303468,16.064655 71.6332431,16.3262578 71.9857773,16.6676004 C72.3397105,17.0075442 72.6236964,17.4384193 72.837735,17.9560291 C73.0531726,18.4722399 73.1594924,19.1059621 73.1594924,19.8474032 C73.1594924,20.5202959 73.0573694,21.106454 72.8517245,21.6100743 C72.6460795,22.1178914 72.3802799,22.5501655 72.0599214,22.9026998 C71.7339671,23.253835 71.3772361,23.5294273 70.9827335,23.7308754 C70.5896299,23.9323235 70.203521,24.0652233 69.8300026,24.1309737 L69.8300026,24.1841337 C70.3336229,24.2708683 70.8316474,24.4261512 71.3310709,24.6513814 C71.8360901,24.8766116 72.2837527,25.1773848 72.6824521,25.5634938 C73.0811515,25.9482037 73.40151,26.4238451 73.6533201,26.9918169 C73.9065292,27.5597887 74.0296364,28.2382772 74.0296364,29.0258834 Z" id="Fill-12" fill="#FFFFFF"></path>
                    <path d="M84.4615717,24.9073884 C84.4615717,24.6289983 84.4335928,24.3170335 84.3734381,23.9728929 C84.3146824,23.6301513 84.1957721,23.305596 84.0069145,23.0034238 C83.8208547,22.6956558 83.5452625,22.4424467 83.1927283,22.2423976 C82.8401941,22.0395505 82.3743453,21.9402254 81.792384,21.9402254 C81.3978814,21.9402254 81.0579377,21.9947842 80.7655581,22.1094978 C80.4773754,22.2200144 80.2241663,22.3655047 80.0185213,22.5445697 C79.8184722,22.7250337 79.6422051,22.9250829 79.5065074,23.1503131 C79.3638149,23.3741443 79.2546972,23.5937787 79.1749573,23.8134132 C79.0938185,24.0330476 79.0378607,24.2400915 79.0070839,24.4359438 C78.9749081,24.6331951 78.9609187,24.7926749 78.9609187,24.9073884 L84.4615717,24.9073884 Z M78.9063598,26.1174761 C78.9063598,26.5987133 78.9385356,27.1121262 79.002887,27.6465233 C79.0630417,28.1823194 79.1679626,28.7139186 79.3148518,29.2357252 C79.4659379,29.7589308 79.6631892,30.2569553 79.9052068,30.7381925 C80.1514212,31.2138339 80.463386,31.6363154 80.8397022,32.0028391 C81.2146196,32.3679638 81.6594842,32.6617423 82.1673014,32.8771799 C82.6751185,33.0926175 83.2668724,33.1975384 83.9397651,33.1975384 C84.2321447,33.1975384 84.4895506,33.1891447 84.7035892,33.1653626 C84.9204258,33.1415806 85.1106823,33.1108038 85.2855505,33.078628 C85.4604187,33.0422555 85.629691,33.001686 85.7947666,32.9555208 C85.964039,32.9079567 86.1375082,32.8673873 86.3249669,32.8212221 L86.3249669,34.0047298 C86.0605662,34.0718792 85.810155,34.1446244 85.5737332,34.2103748 C85.3415083,34.2775242 85.1022886,34.333482 84.8560743,34.3782482 C84.6126578,34.4244134 84.3468582,34.4579881 84.0628723,34.4845681 C83.7844822,34.512547 83.4543311,34.5265364 83.0794137,34.5265364 C82.1029499,34.5265364 81.2188164,34.3754503 80.4312102,34.0676824 C79.6394072,33.7655102 78.9609187,33.3122519 78.3971437,32.7079075 C77.8333687,32.1035631 77.3940999,31.3523295 77.0877309,30.4458129 C76.7813619,29.5420943 76.62468,28.4942842 76.62468,27.2939891 C76.62468,26.3552968 76.7212072,25.4935465 76.9184585,24.7073392 C77.1157098,23.9183341 77.4262757,23.2356487 77.8487571,22.6634801 C78.2656429,22.0913115 78.8140294,21.6464468 79.4827253,21.3218915 C80.1514212,21.0015331 80.9670063,20.8420533 81.9252838,20.8420533 C82.7030974,20.8420533 83.3578038,20.9469742 83.8894031,21.1582149 C84.4251991,21.3666578 84.8602711,21.6380532 85.2044117,21.9682043 C85.552749,22.3025522 85.8171497,22.6690759 86.0046084,23.076169 C86.193466,23.4832621 86.3319616,23.8819615 86.4131004,24.2708683 C86.499835,24.661174 86.5460002,25.0235009 86.5599897,25.352253 C86.5725802,25.6824041 86.5823728,25.9384111 86.5823728,26.1174761 L78.9063598,26.1174761 Z" id="Fill-13" fill="#FFFFFF"></path>
                    <path d="M96.2546808,28.140351 C96.1399673,28.1501437 95.9301255,28.1585373 95.6237564,28.1739257 C95.3215842,28.1865162 94.9774437,28.218692 94.5969306,28.270453 C94.2178164,28.319416 93.819117,28.397757 93.4022313,28.5110716 C92.9853455,28.6229872 92.6062314,28.7824669 92.2662877,28.9839151 C91.9263439,29.18956 91.643757,29.4511628 91.4185268,29.7715213 C91.1946955,30.0876829 91.0841789,30.4779887 91.0841789,30.9424385 C91.0855778,31.6489059 91.2814301,32.1944946 91.6703369,32.5750077 C92.0592437,32.9555208 92.5502736,33.1415806 93.1406285,33.1415806 C93.5533173,33.1415806 93.946421,33.0506491 94.3227373,32.8673873 C94.6962557,32.6855244 95.0264068,32.4337142 95.3173874,32.1161537 C95.6013733,31.799992 95.8294014,31.4250747 95.9986738,30.9900027 C96.1679462,30.5535317 96.2546808,30.0834861 96.2546808,29.5756689 L96.2546808,28.140351 Z M96.2546808,34.2187685 L96.2546808,32.3819533 L96.2001219,32.3777564 C96.1035947,32.5372362 95.9539075,32.7400833 95.7510605,32.9821008 C95.5496123,33.2255173 95.2936053,33.4577422 94.9872363,33.6871692 C94.6752715,33.9165963 94.3087478,34.1138476 93.8876653,34.2775242 C93.4623859,34.4425997 92.9755529,34.5265364 92.4313632,34.5265364 C91.899764,34.5265364 91.4185268,34.4342061 90.9876516,34.255141 C90.5525796,34.077475 90.1776623,33.8382553 89.8656975,33.5318863 C89.5551316,33.2297141 89.3117151,32.8771799 89.1410438,32.4784805 C88.9745693,32.0839779 88.8864357,31.6628954 88.8864357,31.2278234 C88.8864357,30.5815106 89.0095429,30.0387198 89.2613531,29.5896584 C89.5145622,29.1447938 89.8433144,28.7684775 90.2560032,28.4621085 C90.6672931,28.1585373 91.1345409,27.9221156 91.6563475,27.7472474 C92.1837499,27.5723792 92.7153491,27.4366815 93.2595388,27.3345585 C93.8093243,27.2394303 94.3409236,27.1722809 94.8585333,27.1345094 C95.3803399,27.1023336 95.8433908,27.0687589 96.2546808,27.042179 L96.2546808,25.3102847 C96.2546808,24.9619473 96.2364945,24.5926257 96.1959251,24.1981231 C96.1553556,23.8036205 96.0574295,23.4370969 95.8979497,23.1027489 C95.7426668,22.7656031 95.507644,22.4900109 95.2012749,22.2717754 C94.8963049,22.0493431 94.4640308,21.9402254 93.919841,21.9402254 C93.3924386,21.9402254 92.9797498,22.0325558 92.6873702,22.2102218 C92.3907938,22.3878879 92.1655636,22.6089212 92.0144775,22.8747208 C91.8633914,23.1405205 91.7612684,23.4189106 91.7109064,23.7224817 C91.6661401,24.0190581 91.6297675,24.2932514 91.6101823,24.5464605 L89.2515605,24.5464605 C89.289332,24.1421653 89.3746677,23.7266785 89.5145622,23.2916066 C89.6502599,22.8551356 89.8936764,22.4592341 90.2420138,22.0969072 C90.594548,21.7331815 91.0659926,21.4324082 91.6647412,21.1973854 C92.2662877,20.9581658 93.0441013,20.8420533 94.0009799,20.8420533 C94.6430958,20.8420533 95.1970781,20.9050058 95.660129,21.0337088 C96.1175841,21.1652097 96.5064909,21.3400778 96.8226526,21.5597122 C97.14441,21.7807456 97.3948212,22.0325558 97.5878757,22.3249353 C97.7809301,22.6131181 97.9264204,22.920886 98.0313413,23.2412445 C98.1334643,23.5671988 98.2006137,23.8959509 98.2327895,24.2302989 C98.2649652,24.5632478 98.2789547,24.8906011 98.2789547,25.2011669 L98.2789547,34.2187685 L96.2546808,34.2187685 Z" id="Fill-14" fill="#FFFFFF"></path>
                    <path d="M109.16135,25.173188 C109.16135,24.9129842 109.14876,24.6010194 109.124978,24.2247031 C109.105393,23.8539826 109.024254,23.5028473 108.877364,23.1629036 C108.736071,22.820162 108.510841,22.5305803 108.198876,22.2969564 C107.892507,22.0591357 107.453238,21.9402254 106.87967,21.9402254 C106.299108,21.9402254 105.822068,22.0913115 105.451347,22.3892868 C105.079228,22.691459 104.782651,23.076169 104.557421,23.5434167 C104.33359,24.0148613 104.178307,24.5324711 104.095769,25.0990439 C104.009035,25.6684147 103.967066,26.2265938 103.967066,26.7721825 C103.967066,27.2352334 104.003439,27.7192685 104.073386,28.218692 C104.146131,28.7181155 104.260845,29.2077463 104.416128,29.6805898 C104.571411,30.1562313 104.778455,30.6052927 105.034462,31.0305721 C105.291868,31.4572504 105.598237,31.8293699 105.968957,32.1483294 C106.335481,32.4728847 106.76076,32.7260938 107.255987,32.9135525 C107.747017,33.1024101 108.309393,33.1975384 108.945913,33.1975384 C109.215909,33.1975384 109.445336,33.1891447 109.641189,33.1709584 C109.83844,33.1513732 110.017505,33.1289901 110.176985,33.0968143 C110.34206,33.0646386 110.497343,33.028266 110.654025,32.9821008 C110.814904,32.9373346 110.984176,32.8953662 111.173034,32.849201 L111.173034,34.0536929 C110.691797,34.2103748 110.224549,34.3250883 109.77129,34.4076261 C109.316633,34.4845681 108.808816,34.5265364 108.236647,34.5265364 C107.008373,34.5265364 105.977351,34.3376788 105.139383,33.9683573 C104.30701,33.5962378 103.632718,33.0884206 103.120704,32.4337142 C102.611488,31.7790078 102.246364,31.008189 102.019734,30.1240555 C101.795903,29.2399221 101.686785,28.2886392 101.686785,27.2660102 C101.686785,26.1944181 101.814089,25.2557258 102.067299,24.4499333 C102.323306,23.6441408 102.685632,22.9754449 103.148683,22.4424467 C103.614532,21.9122465 104.172711,21.5107492 104.828817,21.2449495 C105.479326,20.9735541 106.208177,20.8420533 107.013969,20.8420533 C107.828155,20.8420533 108.520633,20.9553679 109.087206,21.1847949 C109.655178,21.4100251 110.118229,21.7247878 110.479157,22.1220883 C110.842883,22.5221866 111.107283,22.9796417 111.272359,23.5028473 C111.437434,24.0288507 111.519972,24.584232 111.519972,25.173188 L109.16135,25.173188" id="Fill-15" fill="#FFFFFF"></path>
                    <path d="M122.378586,27.8983335 C122.378586,27.1834724 122.333819,26.4700103 122.245686,25.760745 C122.154754,25.044485 121.984083,24.4093639 121.732273,23.8455889 C121.48466,23.2818139 121.136322,22.8243588 120.694256,22.4718246 C120.249391,22.1178914 119.677222,21.9402254 118.966558,21.9402254 C118.504906,21.9402254 118.096414,22.0227631 117.752274,22.1822429 C117.409532,22.3431216 117.115753,22.562756 116.873736,22.8481409 C116.631718,23.126531 116.433068,23.4608789 116.283381,23.8455889 C116.130896,24.2302989 116.007789,24.6415888 115.921054,25.0864534 C115.828724,25.531318 115.769968,25.9901721 115.737792,26.4700103 C115.705617,26.9456517 115.691627,27.4212931 115.691627,27.8983335 C115.691627,28.5670294 115.728,29.2357252 115.806341,29.8960274 C115.883283,30.5591275 116.041363,31.1508814 116.277785,31.6768848 C116.511409,32.1986914 116.845757,32.6211729 117.276632,32.9457282 C117.706108,33.2646878 118.269883,33.4269654 118.966558,33.4269654 C119.677222,33.4255665 120.249391,33.2660867 120.694256,32.9457282 C121.137721,32.619774 121.48466,32.1986914 121.732273,31.6768848 C121.984083,31.1508814 122.154754,30.5605265 122.245686,29.8960274 C122.333819,29.2357252 122.378586,28.5670294 122.378586,27.8983335 Z M124.660266,27.8157957 C124.660266,28.8733984 124.545552,29.8176865 124.314726,30.6458621 C124.086698,31.4796335 123.743956,32.1805051 123.27531,32.7540727 C122.815057,33.3262414 122.223303,33.7655102 121.504245,34.0676824 C120.789384,34.3740514 119.941623,34.5265364 118.966558,34.5265364 C117.991493,34.5265364 117.152126,34.3754503 116.452653,34.0676824 C115.746186,33.7655102 115.174017,33.3262414 114.724956,32.7540727 C114.28149,32.1805051 113.947142,31.4796335 113.731705,30.6458621 C113.516267,29.8176865 113.411346,28.8733984 113.411346,27.8157957 C113.411346,26.7721825 113.516267,25.8208997 113.731705,24.967543 C113.947142,24.1099896 114.28149,23.3783412 114.724956,22.7656031 C115.174017,22.1556629 115.746186,21.6800215 116.452653,21.3442747 C117.152126,21.0113257 117.991493,20.8420533 118.966558,20.8420533 C119.941623,20.8420533 120.789384,21.0113257 121.504245,21.3442747 C122.223303,21.6800215 122.815057,22.1556629 123.27531,22.7656031 C123.743956,23.3783412 124.086698,24.1099896 124.314726,24.967543 C124.545552,25.8181018 124.660266,26.7721825 124.660266,27.8157957 Z" id="Fill-16" fill="#FFFFFF"></path>
                    <path d="M135.958148,34.2187685 L135.958148,25.7509524 C135.958148,25.4012161 135.948355,25.0360914 135.930169,24.6555782 C135.911983,24.2764641 135.847631,23.9281267 135.728721,23.611965 C135.615406,23.2916066 135.432145,23.0314027 135.183132,22.8243588 C134.941115,22.6187138 134.588581,22.5179898 134.129726,22.5179898 C133.677867,22.5179898 133.260981,22.6089212 132.884665,22.7921831 C132.509748,22.9754449 132.1754,23.2244572 131.877424,23.5392199 C131.583646,23.8483868 131.327639,24.2121126 131.112201,24.6192057 C130.896764,25.0235009 130.719098,25.4529771 130.576405,25.9062354 C130.435112,26.3552968 130.324595,26.8183477 130.250451,27.2813986 C130.183302,27.7472474 130.14553,28.1879152 130.14553,28.6089977 L130.14553,34.2187685 L128.121256,34.2187685 L128.121256,21.1386297 L130.09237,21.1386297 L130.09237,24.3576029 L130.14553,24.3576029 C130.342781,23.946313 130.582001,23.5294273 130.856194,23.1083447 C131.135983,22.6858632 131.460539,22.3123448 131.835456,21.9765979 C132.211772,21.6380532 132.646844,21.3666578 133.146268,21.1582149 C133.641495,20.9469742 134.213663,20.8420533 134.85438,20.8420533 C135.426549,20.8420533 135.911983,20.951171 136.306485,21.1708054 C136.700988,21.3904399 137.019947,21.6702289 137.273157,22.0087737 C137.519371,22.3487174 137.702633,22.718039 137.813149,23.1223342 C137.927863,23.5252304 137.982422,23.9099404 137.982422,24.2764641 L137.982422,34.2187685 L135.958148,34.2187685" id="Fill-17" fill="#FFFFFF"></path>
                </g>
            </g>
        </g>
    </g>
</svg>