<svg width="44" height="44" viewBox="0 0 44 44" fill="none" xmlns="http://www.w3.org/2000/svg">
<g id="Icons / bulb / fill">
<path id="Icon" fill-rule="evenodd" clip-rule="evenodd" d="M22 1.37504C25.7014 1.37504 29.1629 2.79988 31.7471 5.38746C34.3272 7.9692 35.7684 11.4751 35.75 15.125C35.75 19.2165 34.296 22.7735 31.5443 25.4006L31.1223 25.8011L31.1202 25.803C29.5916 27.2501 27.5 29.2299 27.5 30.9375V33C27.5 33.7594 26.8844 34.375 26.125 34.375H24.0625C23.6828 34.375 23.375 34.0672 23.375 33.6875V23.6148C23.3749 23.3302 23.5502 23.075 23.8159 22.9729C24.6098 22.6497 25.364 22.2368 26.064 21.7422C26.6307 21.2852 26.743 20.4656 26.32 19.873C25.897 19.2805 25.0854 19.1204 24.469 19.5079C23.8314 19.9564 22.6068 20.625 22 20.625C21.3933 20.625 20.1687 19.9582 19.5328 19.5079C19.1351 19.1911 18.5952 19.1196 18.1288 19.322C17.6625 19.5243 17.3458 19.9674 17.3054 20.4742C17.2651 20.9809 17.5076 21.4686 17.9361 21.7422C18.6359 22.2377 19.3902 22.6515 20.1842 22.9754C20.4498 23.0775 20.6251 23.3328 20.625 23.6174V33.6875C20.625 34.0672 20.3172 34.375 19.9375 34.375H17.875C17.1156 34.375 16.5 33.7594 16.5 33V30.9375C16.5 29.1879 14.3834 27.2053 12.8357 25.7581L12.461 25.4066C9.78574 22.8792 8.25004 19.1314 8.25004 15.125C8.24134 11.4757 9.6872 7.97323 12.2677 5.39272C14.8482 2.8122 18.3507 1.36634 22 1.37504ZM27.5 37.125C27.5 36.3656 26.8844 35.75 26.125 35.75H17.875C17.1156 35.75 16.5 36.3656 16.5 37.125C16.5 37.8844 17.1156 38.5 17.875 38.5H26.125C26.8844 38.5 27.5 37.8844 27.5 37.125ZM26.125 41.25C26.125 40.4906 25.5094 39.875 24.75 39.875H19.25C18.4906 39.875 17.875 40.4906 17.875 41.25C17.875 42.0094 18.4906 42.625 19.25 42.625H24.75C25.5094 42.625 26.125 42.0094 26.125 41.25Z" fill="#FAA41A"/>
</g>
</svg>
