<?xml version="1.0" encoding="UTF-8"?>
<svg width="32px" height="32px" viewBox="0 0 32 32" version="1.1" xmlns="http://www.w3.org/2000/svg" xmlns:xlink="http://www.w3.org/1999/xlink">
    <!-- Generator: sketchtool 52.5 (67469) - http://www.bohemiancoding.com/sketch -->
    <title>092F9EB5-7391-4FB6-B1B6-B539A6568819</title>
    <desc>Created with sketchtool.</desc>
    <g id="COMP---Global-Footer" stroke="none" stroke-width="1" fill="none" fill-rule="evenodd">
        <g id="GlobalFooter-MOBILE" transform="translate(-119.000000, -1110.000000)" fill="#FFFFFF">
            <g id="Group-11" transform="translate(12.265625, 1069.656250)">
                <g id="Group-7" transform="translate(0.878906, 40.988281)">
                    <g id="LinkedIn" transform="translate(53.000000, 0.000000)">
                        <path d="M69.3125,30.734375 C61.0282288,30.734375 54.3125,24.0186462 54.3125,15.734375 C54.3125,7.45010375 61.0282288,0.734375 69.3125,0.734375 C77.5967712,0.734375 84.3125,7.45010375 84.3125,15.734375 C84.3125,24.0186462 77.5967712,30.734375 69.3125,30.734375 Z M65.8754534,21.9003906 L65.8754534,12.105617 L62.8289185,12.105617 L62.8289185,21.9003906 L65.8754534,21.9003906 Z M64.3685652,10.7625209 C64.8490247,10.7625209 65.2639608,10.587811 65.6133859,10.2383859 C65.962811,9.88896077 66.1375209,9.47402468 66.1375209,8.99356515 C66.1375209,8.51310562 65.962811,8.09816953 65.6133859,7.74874442 C65.2639608,7.39931931 64.8490247,7.22460938 64.3685652,7.22460938 C63.8881056,7.22460938 63.4731695,7.39931931 63.1237444,7.74874442 C62.7743193,8.09816953 62.5996094,8.51310562 62.5996094,8.99356515 C62.5996094,9.47402468 62.7743193,9.88896077 63.1237444,10.2383859 C63.4731695,10.587811 63.8881056,10.7625209 64.3685652,10.7625209 Z M77.2753906,21.9003906 L77.2753906,16.5280064 C77.2753906,15.0211106 77.0570032,13.9073348 76.6202218,13.1866455 C76.052406,12.2912437 75.0587433,11.8435495 73.6392038,11.8435495 C72.9403535,11.8435495 72.3288688,12.0182594 71.8047311,12.3676845 C71.3242716,12.6515924 70.9748517,13.0119316 70.756461,13.448713 L70.7237026,13.448713 L70.7237026,12.105617 L67.8082014,12.105617 L67.8082014,21.9003906 L70.8219779,21.9003906 L70.8219779,17.0521415 C70.8219779,16.287774 70.9311716,15.7090474 71.1495623,15.3159441 C71.4334702,14.7918065 71.9248419,14.5297416 72.6236921,14.5297416 C73.3225423,14.5297416 73.7920753,14.8245646 74.032305,15.4142194 C74.1633395,15.7636446 74.2288557,16.3314518 74.2288557,17.1176583 L74.2288557,21.9003906 L77.2753906,21.9003906 Z" id="Combined-Shape"></path>
                    </g>
                </g>
            </g>
        </g>
    </g>
</svg>