<?xml version="1.0" encoding="UTF-8"?>
<svg width="32px" height="32px" viewBox="0 0 32 32" version="1.1" xmlns="http://www.w3.org/2000/svg" xmlns:xlink="http://www.w3.org/1999/xlink">
    <!-- Generator: sketchtool 52.5 (67469) - http://www.bohemiancoding.com/sketch -->
    <title>092F9EB5-7391-4FB6-B1B6-B539A6568819</title>
    <desc>Created with sketchtool.</desc>
    <g id="COMP---Global-Footer" stroke="none" stroke-width="1" fill="none" fill-rule="evenodd">
        <g id="GlobalFooter-MOBILE" transform="translate(-66.000000, -1110.000000)" fill="#FFFFFF">
            <g id="Group-11" transform="translate(12.265625, 1069.656250)">
                <g id="Group-7" transform="translate(0.878906, 40.988281)">
                    <g id="Twitter" transform="translate(53.000000, 0.000000)">
                        <path d="M0.65625,15 C0.65625,6.71572834 7.37197834,0 15.65625,0 C23.9405217,0 30.65625,6.71572834 30.65625,15 C30.65625,23.2842717 23.9405217,30 15.65625,30 C7.37197834,30 0.65625,23.2842717 0.65625,15 Z M16.1781159,11.6318544 L16.2139278,12.2223758 L15.6170628,12.150067 C13.4444741,11.8728835 11.5464433,10.9328698 9.93490776,9.3541289 L9.14704593,8.57078416 L8.94411183,9.14925412 C8.51436901,10.4387601 8.78892692,11.8005748 9.68422445,12.7164855 C10.1617165,13.2226468 10.0542808,13.2949555 9.23060704,12.9936691 C8.94411183,12.8972574 8.69342852,12.8249487 8.66955392,12.861103 C8.58599282,12.9454632 8.87248803,14.0421459 9.09929673,14.4759983 C9.40966654,15.0785712 10.0423435,15.6690926 10.7347069,16.0185849 L11.3196346,16.2957684 L10.6272712,16.3078199 C9.95878236,16.3078199 9.93490776,16.3198713 10.0065316,16.5729519 C10.2452776,17.3562967 11.1883243,18.1878473 12.2388067,18.549391 L12.9789194,18.8024716 L12.3343051,19.1881182 C11.3793211,19.7424853 10.2572149,20.0558232 9.13510863,20.0799261 C8.59793012,20.0919775 8.15625,20.1401834 8.15625,20.1763377 C8.15625,20.2968523 9.61260065,20.9717339 10.460149,21.236866 C13.002794,22.0202107 16.022931,21.6827699 18.2910181,20.3450581 C19.9025536,19.392993 21.5140892,17.5009142 22.2661391,15.6690926 C22.6720073,14.6929246 23.0778755,12.9093089 23.0778755,12.0536554 C23.0778755,11.4992883 23.1136874,11.4269796 23.7821762,10.7641494 C24.1761072,10.3785028 24.5461635,9.95670177 24.6177873,9.8361872 C24.7371603,9.6072095 24.725223,9.6072095 24.1164207,9.81208428 C23.1017501,10.173628 22.9585025,10.1254222 23.4598691,9.58310659 C23.8299254,9.19745995 24.2716056,8.49847541 24.2716056,8.29360064 C24.2716056,8.25744626 24.0925461,8.31770355 23.889612,8.42616667 C23.6747405,8.54668124 23.1972485,8.72745311 22.8391295,8.83591622 L22.1945153,9.040791 L21.6095876,8.6430929 C21.2872805,8.42616667 20.833663,8.18513752 20.594917,8.11282877 C19.9861147,7.94410837 19.0550053,7.96821128 18.5058895,8.1610346 C17.0137269,8.70335019 16.0706802,10.1013193 16.1781159,11.6318544 Z" id="Combined-Shape"></path>
                    </g>
                </g>
            </g>
        </g>
    </g>
</svg>