<?xml version="1.0" encoding="UTF-8"?>
<svg width="31px" height="31px" viewBox="0 0 31 31" version="1.1" xmlns="http://www.w3.org/2000/svg" xmlns:xlink="http://www.w3.org/1999/xlink">
    <!-- Generator: sketchtool 52.5 (67469) - http://www.bohemiancoding.com/sketch -->
    <title>B22B5A64-EC17-4567-90FB-03626F4561B2</title>
    <desc>Created with sketchtool.</desc>
    <g id="COMP---Global-Footer" stroke="none" stroke-width="1" fill="none" fill-rule="evenodd">
        <g id="GlobalFooter-MOBILE" transform="translate(-13.000000, -1110.000000)" fill="#FFFFFF">
            <g id="Group-11" transform="translate(12.265625, 1069.656250)">
                <g id="Group-7" transform="translate(0.878906, 40.988281)">
                    <g id="Facebook">
                        <path d="M0,15 C0,6.71572834 6.71572834,0 15,0 C23.2842717,0 30,6.71572834 30,15 C30,23.2842717 23.2842717,30 15,30 C6.71572834,30 0,23.2842717 0,15 Z M15.8196507,23.6453422 L15.8196507,15.0716673 L18.1863599,15.0716673 L18.5,12.1171315 L15.8196507,12.1171315 L15.8236717,10.6383578 C15.8236717,9.86776936 15.8968879,9.45487046 17.0036755,9.45487046 L18.4832457,9.45487046 L18.4832457,6.5 L16.1162014,6.5 C13.2730005,6.5 12.2722675,7.93326776 12.2722675,10.3435734 L12.2722675,12.1174661 L10.5,12.1174661 L10.5,15.0720019 L12.2722675,15.0720019 L12.2722675,23.6453422 L15.8196507,23.6453422 Z" id="Combined-Shape"></path>
                    </g>
                </g>
            </g>
        </g>
    </g>
</svg>